HIERARCHY
ROOT Hips
{
    OFFSET 0.000000 0.000000 0.000000
    CHANNELS 6 Xposition Yposition Zposition Zrotation Xrotation Yrotation
    JOINT Spine
    {
        OFFSET -0.000000 8.505030 0.000000
        CHANNELS 3 Zrotation Xrotation Yrotation
        JOINT Spine1
        {
            OFFSET -0.000000 25.070629 0.000000
            CHANNELS 3 Zrotation Xrotation Yrotation
            JOINT Neck
            {
                OFFSET -0.000000 24.967667 2.269788
                CHANNELS 3 Zrotation Xrotation Yrotation
                JOINT Head
                {
                    OFFSET -0.000000 14.520781 -2.074397
                    CHANNELS 3 Zrotation Xrotation Yrotation
                    End Site
                    {
                        OFFSET -0.000000 25.929966 0.000000
                    }
                }
            }
            JOINT LeftShoulder
            {
                OFFSET 4.117346 22.983784 -0.389865
                CHANNELS 3 Zrotation Xrotation Yrotation
                JOINT LeftArm
                {
                    OFFSET 11.957758 0.000000 0.000000
                    CHANNELS 3 Zrotation Xrotation Yrotation
                    JOINT LeftForeArm
                    {
                        OFFSET 31.907600 0.000000 0.000000
                        CHANNELS 3 Zrotation Xrotation Yrotation
                        JOINT LeftHand
                        {
                            OFFSET 28.601147 0.000000 0.000000
                            CHANNELS 3 Zrotation Xrotation Yrotation
                            End Site
                            {
                                OFFSET 15.557981 0.000000 0.000000
                            }
                        }
                    }
                }
            }
            JOINT RightShoulder
            {
                OFFSET -4.061940 22.983784 -0.389865
                CHANNELS 3 Zrotation Xrotation Yrotation
                JOINT RightArm
                {
                    OFFSET -11.957758 0.000000 0.000000
                    CHANNELS 3 Zrotation Xrotation Yrotation
                    JOINT RightForeArm
                    {
                        OFFSET -31.907600 0.000000 0.000000
                        CHANNELS 3 Zrotation Xrotation Yrotation
                        JOINT RightHand
                        {
                            OFFSET -28.601147 0.000000 0.000000
                            CHANNELS 3 Zrotation Xrotation Yrotation
                            End Site
                            {
                                OFFSET -15.557981 0.000000 0.000000
                            }
                        }
                    }
                }
            }
        }
    }
    JOINT LeftUpLeg
    {
        OFFSET 10.371986 0.000000 0.000000
        CHANNELS 3 Zrotation Xrotation Yrotation
        JOINT LeftLeg
        {
            OFFSET -0.000000 -42.486427 0.000000
            CHANNELS 3 Zrotation Xrotation Yrotation
            JOINT LeftFoot
            {
                OFFSET -0.000000 -48.322342 0.000000
                CHANNELS 3 Zrotation Xrotation Yrotation
                JOINT LeftToeBase
                {
                    OFFSET -0.000000 -6.741791 15.557981
                    CHANNELS 3 Zrotation Xrotation Yrotation
                    End Site
                    {
                        OFFSET -0.000000 0.000000 4.148795
                    }
                }
            }
        }
    }
    JOINT RightUpLeg
    {
        OFFSET -10.371986 0.000000 0.000000
        CHANNELS 3 Zrotation Xrotation Yrotation
        JOINT RightLeg
        {
            OFFSET -0.000000 -42.486427 0.000000
            CHANNELS 3 Zrotation Xrotation Yrotation
            JOINT RightFoot
            {
                OFFSET -0.000000 -48.322342 0.000000
                CHANNELS 3 Zrotation Xrotation Yrotation
                JOINT RightToeBase
                {
                    OFFSET -0.000000 -6.741791 15.557981
                    CHANNELS 3 Zrotation Xrotation Yrotation
                    End Site
                    {
                        OFFSET -0.000000 0.000000 4.148795
                    }
                }
            }
        }
    }
}
MOTION
Frames:    4
Frame Time:    0.008333
15.151914    99.260696    44.767075    -1.125648    -2.300910    91.288414    0.166627    -6.127699    1.072775    3.434701    -6.069077    1.245972    -3.289036    29.681929    -4.716625    5.753056    1.131112    -4.580404    12.783877    0.287367    -12.828341    -12.885358    -1.669751    -7.074375    -0.295311    -3.562553    19.207056    3.652990    -3.552388    -1.247682    -15.464584    1.790285    -8.826220    18.496492    -2.414198    19.546251    2.964337    3.521656    -13.424901    -2.499448    3.997531    -5.858765    3.130788    7.797751    6.113544    -2.209140    1.850408    9.115432    -7.118653    -6.916569    11.566612    0.000000    0.000000    0.000000    -0.963246    7.260731    2.410326    2.403575    -5.669268    -2.750145    6.633147    0.577626    -10.539184    0.000000    0.000000    0.000000    
15.141305    99.261024    44.768341    -1.125422    -2.297260    91.302513    0.158216    -6.118305    1.067702    3.441420    -6.094074    1.242487    -3.286833    29.715166    -4.717517    5.763968    1.117038    -4.580025    12.772096    0.297864    -12.847860    -12.894378    -1.683860    -7.062233    -0.315957    -3.544743    19.205154    3.657350    -3.529729    -1.203575    -15.428947    1.833867    -8.817372    18.491680    -2.433943    19.548990    2.962074    3.519984    -13.400933    -2.423137    3.993242    -5.962836    3.128430    7.783437    6.116742    -2.204323    1.858832    9.105320    -7.133542    -6.916480    11.559918    0.000000    0.000000    0.000000    -0.964226    7.251410    2.398029    2.407944    -5.658728    -2.766999    6.620454    0.574043    -10.532537    0.000000    0.000000    0.000000    
15.131781    99.260780    44.768559    -1.125262    -2.296779    91.320518    0.149825    -6.121434    1.064667    3.456460    -6.088187    1.240537    -3.281379    29.685667    -4.729026    5.760438    1.165513    -4.593150    12.762010    0.293548    -12.864436    -12.916894    -1.703442    -7.061753    -0.312507    -3.537002    19.173994    3.697733    -3.516653    -1.004401    -15.417630    1.832721    -8.838282    18.453943    -1.790596    19.574476    2.702334    3.241242    -13.410782    -2.349410    3.679694    -5.920333    3.129252    7.774357    6.109848    -2.202958    1.866373    9.099768    -7.125721    -6.927006    11.554098    0.000000    0.000000    0.000000    -0.964071    7.240001    2.372940    2.408093    -5.647545    -2.775726    6.641811    0.570376    -10.510224    0.000000    0.000000    0.000000    
15.125771    99.261215    44.770889    -1.114101    -2.299012    91.335602    0.139276    -6.117450    1.061406    3.480492    -6.076202    1.238734    -3.294679    29.681993    -4.737581    5.775910    1.168966    -4.601838    12.752275    0.297163    -12.858498    -12.941667    -1.672860    -7.083755    -0.300120    -3.548570    19.164480    3.717346    -3.529190    -0.962900    -15.433626    1.813535    -8.852199    18.468246    -1.618112    19.573185    2.687375    3.264606    -13.420476    -2.212612    3.695374    -5.967939    3.137575    7.780844    6.111537    -2.206715    1.863037    9.090899    -7.113794    -6.922913    11.548103    0.000000    0.000000    0.000000    -0.961133    7.236609    2.379404    2.412023    -5.619641    -2.734499    6.627626    0.550712    -10.565832    0.000000    0.000000    0.000000    
